<svg width="21" height="26" viewBox="0 0 21 26" fill="none" xmlns="http://www.w3.org/2000/svg">
<path d="M10.1143 6.38916C10.7902 9.11999 12.0086 10.8042 13.5195 11.8501C14.347 12.4228 15.235 12.7809 16.1123 13.0239C15.4158 13.2337 14.7875 13.4968 14.2217 13.8071C12.646 14.6714 11.5921 15.8799 10.8945 17.231C10.573 17.8538 10.3293 18.5086 10.1416 19.1733C9.50743 16.8199 8.46697 15.3178 7.17773 14.3511C6.37806 13.7514 5.51268 13.3823 4.65234 13.1372C5.27502 12.9283 5.83566 12.6704 6.33887 12.3647C7.78081 11.4887 8.70609 10.2688 9.31348 8.92432C9.68066 8.1115 9.93162 7.25054 10.1143 6.38916Z" fill="white" stroke="#862983" stroke-width="1.28996"/>
</svg>
